<svg xmlns="http://www.w3.org/2000/svg" viewBox="0 0 201.75 176.69"><defs><style>.cls-1{fill:#006170;}.cls-2{fill:#fff;}.cls-3{fill:#00c3db;}.cls-4{fill:#f4d959;}</style></defs><g id="Layer_2" data-name="Layer 2"><g id="Layer_1-2" data-name="Layer 1"><path class="cls-1" d="M147.64,0H54.11a7.35,7.35,0,0,0-6.36,3.67L1,84.67A7.36,7.36,0,0,0,1,92l46.77,81a7.35,7.35,0,0,0,6.36,3.67h93.53A7.34,7.34,0,0,0,154,173l46.77-81a7.36,7.36,0,0,0,0-7.35L154,3.67A7.34,7.34,0,0,0,147.64,0Z"/><path class="cls-2" d="M79.27,77.75V96.21A5.09,5.09,0,0,0,88,99.81l9.23-9.23a5.11,5.11,0,0,0,0-7.2L88,74.15A5.09,5.09,0,0,0,79.27,77.75Z"/><path class="cls-3" d="M104.59,77.75V96.21a5.09,5.09,0,0,0,8.68,3.6l9.23-9.23a5.09,5.09,0,0,0,0-7.2l-9.23-9.23A5.09,5.09,0,0,0,104.59,77.75Z"/><path class="cls-3" d="M64.64,74.67l1.69-.73A5.57,5.57,0,0,0,68,73.08a5.22,5.22,0,0,0,.33-2h0c0-.39.07-.83.16-1.65L69.91,56.6l.1-1c.31-2.58.37-3.07-2.6-5a9.14,9.14,0,0,0-7.61-.87A19.79,19.79,0,0,0,51,55.31h0a27.85,27.85,0,0,0-3.2,4.87C42.51,70.26,42.66,84,46.68,97.33s11.94,26.36,22.2,34.82a47.13,47.13,0,0,0,8.25,5.52A10.43,10.43,0,0,0,85,138a17.51,17.51,0,0,0,7.79-5.79l0-.06c1.39-1.76,2-2.52,2-3s-.37-.82-1-1.7c-.38-.54-.84-1.18-1.34-2l-7.09-10.9c-.42-.65-.73-1.17-1-1.6a5.47,5.47,0,0,0-.61-1,8.35,8.35,0,0,0-1.53.44l-.79.25c-1.25.4-2.42.89-3.5,1.34-3.89,1.62-6.88,2.87-9.89-.74a50.56,50.56,0,0,1-9.08-16,36.86,36.86,0,0,1-1.81-16.53c.47-3.61,2.35-4.28,5.1-5.25.71-.26,1.5-.54,2.32-.91Zm2.46,1.1-1.63.71c-.91.41-1.73.7-2.48,1-2.07.74-3.49,1.24-3.8,3.65a35,35,0,0,0,1.72,15.61,48.58,48.58,0,0,0,8.73,15.39c2.07,2.5,4.47,1.5,7.59.2,1.13-.48,2.34-1,3.67-1.41l.77-.24c1.51-.49,2.2-.72,3-.37s.94.81,1.51,1.76c.23.41.53.92.93,1.53l7.09,10.89c.52.8.94,1.39,1.29,1.88.86,1.2,1.34,1.89,1.37,2.8,0,1.17-.69,2.1-2.4,4.27l0,.06a19.36,19.36,0,0,1-8.72,6.44,12.3,12.3,0,0,1-9.39-.44l0,0a49.52,49.52,0,0,1-8.63-5.76c-10.56-8.72-18.7-22-22.84-35.78S40.48,69.83,46,59.25a29.55,29.55,0,0,1,3.42-5.2l.08-.1a21.91,21.91,0,0,1,9.78-6.12,11.12,11.12,0,0,1,9.22,1.11c4,2.61,3.94,3.3,3.5,6.92l-.11,1-1.4,12.86c0,.45-.11,1.08-.15,1.61h0c-.14,1.53-.21,2.29-.71,3a5.32,5.32,0,0,1-2.51,1.52Z"/><path class="cls-3" d="M81.45,142a13.4,13.4,0,0,1-5.73-1.28,50.37,50.37,0,0,1-9-6c-10.42-8.61-18.9-21.88-23.28-36.43-4.5-15-4-29.41,1.32-39.67a30.09,30.09,0,0,1,3.58-5.44,23.34,23.34,0,0,1,10.54-6.66,12.4,12.4,0,0,1,10.3,1.29c4.54,2.94,4.6,4.13,4.11,8.2L71.81,69.83c0,.43-.1,1-.14,1.58l-.1,1a5,5,0,0,1-.88,2.68,6.35,6.35,0,0,1-3.06,2l-.08,0L66,77.71c-.92.41-1.76.72-2.52,1-2.16.76-2.78,1-3,2.57a33.37,33.37,0,0,0,1.66,15,47,47,0,0,0,8.48,14.95c1.33,1.6,2.56,1.26,6-.18,1.05-.45,2.36-1,3.78-1.45l.78-.25c1.62-.52,2.68-.87,3.92-.31a4.82,4.82,0,0,1,2.1,2.28c.25.43.54.92.92,1.51l7.09,10.89c.5.78.91,1.35,1.25,1.83.92,1.29,1.58,2.22,1.63,3.53.06,1.66-.86,2.83-2.69,5.15a20.75,20.75,0,0,1-9.39,6.95A14.59,14.59,0,0,1,81.45,142ZM51.92,56.25a26.65,26.65,0,0,0-3,4.55C44.17,70,43.81,83.15,48,96.94S60,123.1,69.74,131.11a46,46,0,0,0,8,5.37,9.07,9.07,0,0,0,6.86.27,16,16,0,0,0,7.16-5.35c.77-1,1.42-1.79,1.66-2.2-.13-.14-.41-.54-.68-.91-.44-.63-.89-1.26-1.38-2l-7.09-10.9c-.44-.68-.75-1.22-1-1.65a.41.41,0,0,1,0-.09l-.38.12-.93.3c-1.21.39-2.38.88-3.39,1.3-4,1.68-7.8,3.25-11.44-1.12a51.53,51.53,0,0,1-9.32-16.47,37.91,37.91,0,0,1-1.88-17.12c.59-4.44,3.21-5.37,6-6.35.71-.26,1.45-.52,2.22-.87h0c.57-.26,1-.46,1.44-.63l.26-.11c.42-.18.83-.35,1.07-.47,0-.22.07-.56.1-.92L67,71c0-.39.07-.84.17-1.68l1.51-13.84c.27-2.25.27-2.25-2-3.72A7.8,7.8,0,0,0,60.16,51a18.42,18.42,0,0,0-8.22,5.18Z"/><path class="cls-4" d="M137.37,74.67c.82.37,1.61.65,2.33.91,2.74,1,4.62,1.64,5.1,5.25A37,37,0,0,1,143,97.36a50.37,50.37,0,0,1-9.08,16c-3,3.61-6,2.36-9.88.74-1.09-.45-2.26-.94-3.51-1.34l-.79-.25a8.35,8.35,0,0,0-1.53-.44,5.84,5.84,0,0,0-.6,1c-.25.43-.56,1-1,1.6l-7.1,10.9c-.49.77-1,1.41-1.34,2-.63.88-1,1.38-1,1.7s.58,1.22,2,3l0,.06A17.49,17.49,0,0,0,117,138a10.4,10.4,0,0,0,7.9-.36,47.13,47.13,0,0,0,8.25-5.52c10.26-8.46,18.17-21.43,22.21-34.82s4.17-27.07-1.08-37.15a27.29,27.29,0,0,0-3.2-4.87h0a19.82,19.82,0,0,0-8.85-5.56,9.15,9.15,0,0,0-7.61.87c-3,1.93-2.91,2.42-2.6,5l.11,1,1.4,12.86c.09.82.13,1.26.16,1.65h0a5.69,5.69,0,0,0,.33,2,5.57,5.57,0,0,0,1.68.86l1.69.73Zm-2.46,1.1a5.32,5.32,0,0,1-2.51-1.52c-.5-.67-.57-1.43-.71-3h0c-.05-.53-.11-1.16-.16-1.61l-1.4-12.86-.11-1c-.43-3.62-.51-4.31,3.5-6.92a11.12,11.12,0,0,1,9.22-1.11A22,22,0,0,1,152.53,54l.07.1a30.17,30.17,0,0,1,3.43,5.2c5.5,10.58,5.37,24.86,1.21,38.66S145,125,134.4,133.69a49.15,49.15,0,0,1-8.63,5.76l0,0a12.3,12.3,0,0,1-9.39.44,19.36,19.36,0,0,1-8.72-6.44l0-.06c-1.71-2.17-2.44-3.1-2.4-4.27,0-.91.52-1.6,1.37-2.8.35-.49.77-1.08,1.29-1.88l7.09-10.89c.4-.61.7-1.12.94-1.53.56-1,.86-1.47,1.5-1.76s1.46-.12,3,.37l.77.24c1.33.43,2.55.93,3.67,1.41,3.12,1.3,5.52,2.3,7.59-.2a48.58,48.58,0,0,0,8.73-15.39,34.85,34.85,0,0,0,1.72-15.61c-.31-2.41-1.72-2.91-3.79-3.65-.76-.27-1.58-.56-2.49-1l-1.63-.71Z"/><path class="cls-4" d="M120.53,142a14.36,14.36,0,0,1-4.62-.78,20.8,20.8,0,0,1-9.35-6.89c-1.87-2.39-2.79-3.55-2.72-5.22,0-1.31.7-2.24,1.62-3.52.34-.48.75-1,1.26-1.83l7.09-10.89c.38-.59.66-1.08.89-1.47a4.83,4.83,0,0,1,2.11-2.31c1.25-.57,2.32-.22,3.93.3l.78.25c1.42.45,2.73,1,3.78,1.45,3.47,1.44,4.71,1.78,6,.18a47,47,0,0,0,8.48-14.95,33.52,33.52,0,0,0,1.67-15c-.2-1.52-.81-1.81-2.91-2.55-.8-.29-1.66-.59-2.59-1-.55-.25-1-.46-1.47-.64l.39-1.3L134.39,77a6.39,6.39,0,0,1-3.07-2,4.94,4.94,0,0,1-.87-2.68h0l-.09-1c0-.52-.11-1.14-.15-1.58L128.69,56c-.49-4.06-.43-5.25,4.1-8.19a12.42,12.42,0,0,1,10.31-1.29A23.38,23.38,0,0,1,153.51,53l.17.2a30.7,30.7,0,0,1,3.54,5.4c5.34,10.25,5.81,24.71,1.31,39.66-4.38,14.55-12.86,27.83-23.27,36.43a51.51,51.51,0,0,1-8.87,5.92A13.86,13.86,0,0,1,120.53,142ZM108.6,129.24c.26.41.89,1.2,1.59,2.1a16.18,16.18,0,0,0,7.22,5.42,9,9,0,0,0,6.9-.31,45.67,45.67,0,0,0,8-5.34c9.71-8,17.65-20.47,21.77-34.17s3.79-27-1-36.14a26.59,26.59,0,0,0-3-4.58h0A18.44,18.44,0,0,0,141.86,51a7.8,7.8,0,0,0-6.52.71c-2.27,1.47-2.27,1.47-2,3.71l1.52,13.86c.08.72.12,1.15.15,1.51l.09,1c0,.19,0,.35.06.47s.6.24,1,.42l.31.13,1.43.62h0c.78.36,1.53.62,2.2.86,2.8,1,5.43,1.92,6,6.36a38,38,0,0,1-1.87,17.12,52.13,52.13,0,0,1-9.32,16.47c-3.65,4.37-7.43,2.8-11.43,1.13-1-.43-2.19-.92-3.41-1.31l-.79-.25-.51-.17a.35.35,0,0,0,0,.08c-.26.44-.58,1-1,1.65l-7.1,10.91c-.46.7-.89,1.32-1.26,1.84S108.76,129,108.6,129.24Zm26.56-54.06-.25.59.32-.56Z"/></g></g></svg>