<svg xmlns="http://www.w3.org/2000/svg" viewBox="0 0 201.75 176.69"><defs><style>.cls-1{fill:#006170;}.cls-2{fill:#fff;}.cls-3{fill:#f4d959;}.cls-4{fill:#fae65a;}.cls-5{fill:#00c3db;}</style></defs><g id="Layer_2" data-name="Layer 2"><g id="Layer_1-2" data-name="Layer 1"><path class="cls-1" d="M147.64,0H54.11a7.35,7.35,0,0,0-6.36,3.67L1,84.67A7.36,7.36,0,0,0,1,92l46.77,81a7.35,7.35,0,0,0,6.36,3.67h93.53A7.34,7.34,0,0,0,154,173l46.77-81a7.36,7.36,0,0,0,0-7.35L154,3.67A7.34,7.34,0,0,0,147.64,0Z"/><rect class="cls-1" x="65.89" y="30.31" width="66.44" height="119.43" rx="2.95"/><path class="cls-2" d="M114.21,151.94H84a20.35,20.35,0,0,1-20.33-20.32V48.44A20.35,20.35,0,0,1,84,28.11h30.19a20.34,20.34,0,0,1,20.32,20.33v83.18A20.34,20.34,0,0,1,114.21,151.94ZM84,32.52A15.94,15.94,0,0,0,68.1,48.44v83.18A15.94,15.94,0,0,0,84,147.54h30.19a15.94,15.94,0,0,0,15.92-15.92V48.44a15.94,15.94,0,0,0-15.92-15.92Z"/><path class="cls-2" d="M108.18,43.62H89.32a2.2,2.2,0,1,1,0-4.4h18.86a2.2,2.2,0,0,1,0,4.4Z"/><rect class="cls-2" x="65.35" y="127.77" width="66.44" height="4.4"/><rect class="cls-2" x="65.35" y="52.55" width="66.44" height="4.4"/><circle class="cls-3" cx="83.3" cy="69.73" r="6.26"/><circle class="cls-3" cx="99.08" cy="69.73" r="6.26"/><circle class="cls-3" cx="114.37" cy="69.73" r="6.26"/><circle class="cls-3" cx="83.3" cy="84.66" r="6.26"/><circle class="cls-3" cx="99.08" cy="84.66" r="6.26"/><circle class="cls-4" cx="114.37" cy="84.66" r="6.26"/><circle class="cls-3" cx="83.3" cy="100.04" r="6.26"/><circle class="cls-3" cx="99.08" cy="100.04" r="6.26"/><circle class="cls-3" cx="99.08" cy="115.01" r="6.26"/><circle class="cls-4" cx="114.37" cy="100.04" r="6.26"/><ellipse class="cls-1" cx="133.86" cy="92.52" rx="31.91" ry="19.51"/><path class="cls-2" d="M133.86,114.23c-19.13,0-34.11-9.54-34.11-21.71s15-21.72,34.11-21.72S168,80.34,168,92.52,153,114.23,133.86,114.23Zm0-39c-16.1,0-29.71,7.93-29.71,17.32s13.61,17.31,29.71,17.31,29.71-7.93,29.71-17.31S150,75.2,133.86,75.2Z"/><path class="cls-5" d="M138.24,84l-7.36,7.36a2.33,2.33,0,0,1-3.28,0l-.25-.26a2.33,2.33,0,0,0-3.28,0h0a2.33,2.33,0,0,0,0,3.28l3.53,3.53a2.33,2.33,0,0,0,3.28,0l10.64-10.64a2.32,2.32,0,0,0,0-3.27h0A2.31,2.31,0,0,0,138.24,84Z"/></g></g></svg>