<svg xmlns="http://www.w3.org/2000/svg" viewBox="0 0 201.75 176.69"><defs><style>.cls-1{fill:#006170;}.cls-2{fill:#fff;}.cls-3{fill:#fae65a;}.cls-4{fill:#00c3db;}.cls-5{fill:#f4d959;}</style></defs><g id="Layer_2" data-name="Layer 2"><g id="Layer_1-2" data-name="Layer 1"><path class="cls-1" d="M147.64,0H54.11a7.35,7.35,0,0,0-6.36,3.67L1,84.67A7.36,7.36,0,0,0,1,92l46.77,81a7.35,7.35,0,0,0,6.36,3.67h93.53A7.34,7.34,0,0,0,154,173l46.77-81a7.36,7.36,0,0,0,0-7.35L154,3.67A7.34,7.34,0,0,0,147.64,0Z"/><rect class="cls-1" x="66.45" y="26.7" width="67.28" height="120.94" rx="3.39"/><path class="cls-2" d="M115.37,149.87H84.8a20.6,20.6,0,0,1-20.58-20.59V45.06A20.61,20.61,0,0,1,84.8,24.47h30.57A20.62,20.62,0,0,1,136,45.06v84.22A20.61,20.61,0,0,1,115.37,149.87ZM84.8,28.93A16.14,16.14,0,0,0,68.68,45.06v84.22A16.14,16.14,0,0,0,84.8,145.41h30.57a16.15,16.15,0,0,0,16.13-16.13V45.06a16.15,16.15,0,0,0-16.13-16.13Z"/><path class="cls-2" d="M109.27,40.18H90.17a2.23,2.23,0,0,1,0-4.46h19.1a2.23,2.23,0,1,1,0,4.46Z"/><rect class="cls-2" x="65.89" y="125.39" width="67.28" height="4.46"/><rect class="cls-2" x="65.89" y="49.22" width="67.28" height="4.46"/><circle class="cls-3" cx="100.45" cy="68.28" r="8.4"/><path class="cls-3" d="M109.56,77.68a11,11,0,0,1-18.27-.06A11.81,11.81,0,0,0,81.17,89.31v11.74a4.39,4.39,0,0,0,4.38,4.39h29.32a4.4,4.4,0,0,0,4.39-4.39V89.31A11.84,11.84,0,0,0,109.56,77.68Z"/><circle class="cls-1" cx="125.36" cy="134.52" r="19.8"/><path class="cls-4" d="M125.36,156.55a22,22,0,1,1,22-22A22.05,22.05,0,0,1,125.36,156.55Zm0-39.6a17.57,17.57,0,1,0,17.57,17.57A17.59,17.59,0,0,0,125.36,117Z"/><path class="cls-5" d="M131,126.78l-7.46,7.46a2.36,2.36,0,0,1-3.32,0L120,134a2.36,2.36,0,0,0-3.32,0h0a2.35,2.35,0,0,0,0,3.32l3.57,3.57a2.34,2.34,0,0,0,3.32,0l10.77-10.77a2.34,2.34,0,0,0,0-3.32h0A2.35,2.35,0,0,0,131,126.78Z"/><circle class="cls-1" cx="67.04" cy="70.21" r="11.1"/><path class="cls-4" d="M67,83.54A13.33,13.33,0,1,1,80.37,70.21,13.34,13.34,0,0,1,67,83.54Zm0-22.19a8.87,8.87,0,1,0,8.87,8.86A8.86,8.86,0,0,0,67,61.35Z"/><path class="cls-1" d="M79.08,82.64A14.58,14.58,0,0,1,55,82.55,15.61,15.61,0,0,0,41.57,98v15.51a5.79,5.79,0,0,0,5.79,5.79H86.1a5.79,5.79,0,0,0,5.79-5.79V98A15.62,15.62,0,0,0,79.08,82.64Z"/><path class="cls-4" d="M86.1,121.53H47.36a8,8,0,0,1-8-8V98A18,18,0,0,1,54.63,80.34l1.38-.2.79,1.16a12.35,12.35,0,0,0,20.44.08l.81-1.2,1.43.26A17.85,17.85,0,0,1,94.12,98v15.51A8,8,0,0,1,86.1,121.53ZM54,85A13.47,13.47,0,0,0,43.8,98v15.51a3.56,3.56,0,0,0,3.56,3.56H86.1a3.56,3.56,0,0,0,3.56-3.56V98A13.38,13.38,0,0,0,80,85.14,16.8,16.8,0,0,1,54,85Z"/><path class="cls-4" d="M52.47,121.25A2.23,2.23,0,0,1,50.24,119V102.55a2.23,2.23,0,0,1,4.46,0V119A2.23,2.23,0,0,1,52.47,121.25Z"/><path class="cls-4" d="M81.38,121.25A2.23,2.23,0,0,1,79.14,119V102.55a2.24,2.24,0,0,1,4.47,0V119A2.23,2.23,0,0,1,81.38,121.25Z"/></g></g></svg>