<svg xmlns="http://www.w3.org/2000/svg" viewBox="0 0 17.4 24"><defs><style>.cls-1{fill:#fff;}</style></defs><g id="Layer_2" data-name="Layer 2"><g id="Layer_1-2" data-name="Layer 1"><path class="cls-1" d="M12.2,12h0L9.1,8.9a.5.5,0,0,0-.4-.2l-.4.2L6.9,10.3,5.4,8.7,6.7,7.4a2.8,2.8,0,0,1,4,0l3.1,3h0L15.3,12h.1l-1.6,1.6h0Z"/><path class="cls-1" d="M15.5,15.3,17,16.8a2.9,2.9,0,0,0,0-3.1Z"/><path class="cls-1" d="M9.1,21.6a.6.6,0,0,1-.8,0L.5,13.7a2.7,2.7,0,0,0,.3,3.5l5.9,5.9a2.8,2.8,0,0,0,2,.9,2.7,2.7,0,0,0,2-.9l4.7-4.7-1.5-1.6Z"/><path class="cls-1" d="M16.6,6.7,10.7.8a2.8,2.8,0,0,0-4,0L.8,6.7a2.8,2.8,0,0,0,0,4L2.1,12h0l1.6,1.6h0l3,3a2.7,2.7,0,0,0,2,.8,2.6,2.6,0,0,0,2-.8l1.4-1.4-1.5-1.6L9.1,15a.5.5,0,0,1-.8,0L5.2,12h0L3.7,10.4h0L2.4,9.1a.6.6,0,0,1,0-.8L8.3,2.4l.4-.2a.5.5,0,0,1,.4.2L15,8.3h.1L17,10.2A2.8,2.8,0,0,0,16.6,6.7Z"/></g></g></svg>