<svg xmlns="http://www.w3.org/2000/svg" viewBox="0 0 268.3 50.9"><defs><style>.cls-1{fill:#fff;}.cls-2{fill:none;stroke:#fff;stroke-miterlimit:10;}</style></defs><g id="Layer_2" data-name="Layer 2"><g id="Layer_1-2" data-name="Layer 1"><path class="cls-1" d="M126,18.9V10.3l-3.4,8.6h-1.1l-3.4-8.6v8.6h-2.5V6.9h3.6l2.9,7.5L125,6.9h3.6v12Z"/><path class="cls-1" d="M130.3,14.6a4.5,4.5,0,0,1,4.6-4.6,4.4,4.4,0,0,1,4.6,4.6,4.4,4.4,0,0,1-4.6,4.5A4.4,4.4,0,0,1,130.3,14.6Zm6.8,0a2.2,2.2,0,1,0-4.4,0,2.2,2.2,0,1,0,4.4,0Z"/><path class="cls-1" d="M141.2,18.9V6.9h2.3v4.4a3.2,3.2,0,0,1,2.7-1.3c2.2,0,3.8,1.7,3.8,4.6s-1.6,4.5-3.8,4.5a3.5,3.5,0,0,1-2.7-1.3v1.1Zm4.3-1.8a2.2,2.2,0,0,0,2.2-2.5,2.3,2.3,0,0,0-2.2-2.6,2.6,2.6,0,0,0-2,1.1v3A2.5,2.5,0,0,0,145.5,17.1Z"/><path class="cls-1" d="M151.5,7.9a1.3,1.3,0,0,1,1.4-1.3,1.3,1.3,0,0,1,1.3,1.3,1.3,1.3,0,0,1-1.3,1.4A1.4,1.4,0,0,1,151.5,7.9Zm.2,11V10.2H154v8.7Z"/><path class="cls-1" d="M156.3,18.9V6.9h2.2v12Z"/><path class="cls-1" d="M160.2,14.6a4.4,4.4,0,0,1,4.5-4.6c2.6,0,4.4,2,4.4,4.8v.5h-6.5a2.4,2.4,0,0,0,2.5,2,3.6,3.6,0,0,0,2.3-.9l1,1.5a5.1,5.1,0,0,1-3.5,1.2A4.4,4.4,0,0,1,160.2,14.6Zm4.5-2.7a2,2,0,0,0-2.1,1.8h4.3A2,2,0,0,0,164.7,11.9Z"/><path class="cls-1" d="M175.4,18.9V6.9h2.5v12Z"/><path class="cls-1" d="M186.1,18.9V13.7c0-1.2-.6-1.7-1.6-1.7a2.4,2.4,0,0,0-2,1.1v5.8h-2.2V10.2h2.2v1.1a4.5,4.5,0,0,1,3.1-1.3,2.5,2.5,0,0,1,2.8,2.8v6.1Z"/><path class="cls-1" d="M191.1,16.7V12.2h-1.4v-2h1.4V7.9h2.3v2.3h1.7v2h-1.7v3.9c0,.6.3,1,.8,1a1.1,1.1,0,0,0,.8-.3l.5,1.8a3.1,3.1,0,0,1-1.9.5A2.2,2.2,0,0,1,191.1,16.7Z"/><path class="cls-1" d="M196.2,14.6a4.4,4.4,0,0,1,4.4-4.6c2.6,0,4.4,2,4.4,4.8v.5h-6.5a2.4,2.4,0,0,0,2.5,2,3.6,3.6,0,0,0,2.3-.9l1.1,1.5a5.6,5.6,0,0,1-3.6,1.2A4.3,4.3,0,0,1,196.2,14.6Zm4.4-2.7a2,2,0,0,0-2.1,1.8h4.3A2,2,0,0,0,200.6,11.9Z"/><path class="cls-1" d="M206.6,18.9V6.9h2.3v12Z"/><path class="cls-1" d="M211.2,18.9V6.9h2.3v12Z"/><path class="cls-1" d="M215.5,7.9a1.3,1.3,0,0,1,1.3-1.3,1.3,1.3,0,0,1,1.4,1.3,1.4,1.4,0,0,1-1.4,1.4A1.3,1.3,0,0,1,215.5,7.9Zm.2,11V10.2H218v8.7Z"/><path class="cls-1" d="M220.1,21.1l1-1.6a3.7,3.7,0,0,0,2.7,1.1,2.2,2.2,0,0,0,2.4-2.3v-.8a3.5,3.5,0,0,1-2.7,1.3c-2.1,0-3.8-1.5-3.8-4.4s1.6-4.4,3.8-4.4a3.2,3.2,0,0,1,2.7,1.3V10.2h2.3v8.1c0,3.3-2.6,4.1-4.7,4.1A5,5,0,0,1,220.1,21.1Zm6.1-5.3V13a2.7,2.7,0,0,0-1.9-1,2.2,2.2,0,0,0-2.3,2.4,2.2,2.2,0,0,0,2.3,2.4A2.4,2.4,0,0,0,226.2,15.8Z"/><path class="cls-1" d="M230.2,14.6a4.4,4.4,0,0,1,4.5-4.6c2.6,0,4.3,2,4.3,4.8v.5h-6.4a2.3,2.3,0,0,0,2.5,2,4.1,4.1,0,0,0,2.3-.9l1,1.5a5.4,5.4,0,0,1-3.6,1.2A4.4,4.4,0,0,1,230.2,14.6Zm4.5-2.7a2,2,0,0,0-2.1,1.8h4.2A1.9,1.9,0,0,0,234.7,11.9Z"/><path class="cls-1" d="M246.5,18.9V13.7c0-1.2-.6-1.7-1.6-1.7a2.1,2.1,0,0,0-1.9,1.1v5.8h-2.3V10.2H243v1.1a4,4,0,0,1,3-1.3,2.5,2.5,0,0,1,2.8,2.8v6.1Z"/><path class="cls-1" d="M250.5,14.6a4.4,4.4,0,0,1,4.6-4.6,3.8,3.8,0,0,1,3.4,1.6L257,13a2.1,2.1,0,0,0-1.8-1,2.3,2.3,0,0,0-2.3,2.6,2.3,2.3,0,0,0,2.3,2.5,2.1,2.1,0,0,0,1.8-1l1.5,1.4a3.8,3.8,0,0,1-3.4,1.6A4.4,4.4,0,0,1,250.5,14.6Z"/><path class="cls-1" d="M259.5,14.6a4.4,4.4,0,0,1,4.4-4.6c2.6,0,4.4,2,4.4,4.8v.5h-6.5a2.4,2.4,0,0,0,2.5,2,3.6,3.6,0,0,0,2.3-.9l1.1,1.5a5.6,5.6,0,0,1-3.6,1.2A4.4,4.4,0,0,1,259.5,14.6Zm4.4-2.7a2,2,0,0,0-2.1,1.8h4.3A2,2,0,0,0,263.9,11.9Z"/><path class="cls-1" d="M115.6,40.4V28.5h5.6a3.7,3.7,0,0,1,4,3.8,3.8,3.8,0,0,1-4,3.9h-3.1v4.2Zm7-8.1a1.6,1.6,0,0,0-1.8-1.6h-2.7v3.2h2.7A1.6,1.6,0,0,0,122.6,32.3Z"/><path class="cls-1" d="M126.8,40.4V31.8H129v1.1a4.1,4.1,0,0,1,2.8-1.3v2.2h-.6a3.2,3.2,0,0,0-2.2,1v5.7Z"/><path class="cls-1" d="M132.7,36.1a4.6,4.6,0,0,1,9.1,0,4.6,4.6,0,1,1-9.1,0Zm6.8,0a2.3,2.3,0,1,0-4.5,0,2.3,2.3,0,1,0,4.5,0Z"/><path class="cls-1" d="M149.5,40.4V39.3a3.3,3.3,0,0,1-2.7,1.4c-2.1,0-3.8-1.7-3.8-4.6s1.6-4.5,3.8-4.5a3.4,3.4,0,0,1,2.7,1.3V28.5h2.3V40.4Zm0-2.8v-3a2.5,2.5,0,0,0-2-1,2.2,2.2,0,0,0-2.2,2.5,2.2,2.2,0,0,0,2.2,2.5A2.5,2.5,0,0,0,149.5,37.6Z"/><path class="cls-1" d="M159.9,40.4V39.3a3.9,3.9,0,0,1-3,1.4,2.5,2.5,0,0,1-2.8-2.8V31.8h2.2V37a1.4,1.4,0,0,0,1.6,1.6,2.6,2.6,0,0,0,2-1V31.8h2.3v8.6Z"/><path class="cls-1" d="M163.9,36.1a4.3,4.3,0,0,1,4.6-4.5,3.9,3.9,0,0,1,3.4,1.5l-1.5,1.4a2,2,0,0,0-1.8-.9,2.5,2.5,0,0,0,0,5,2,2,0,0,0,1.8-.9l1.5,1.4a4,4,0,0,1-3.4,1.6A4.4,4.4,0,0,1,163.9,36.1Z"/><path class="cls-1" d="M173.9,38.3V33.8h-1.5v-2h1.5V29.4h2.2v2.4h1.8v2h-1.8v3.9a.8.8,0,0,0,.8.9,1.3,1.3,0,0,0,.8-.2l.5,1.7a2.6,2.6,0,0,1-1.9.6A2.2,2.2,0,0,1,173.9,38.3Z"/><path class="cls-1" d="M184.1,40.4V28.5h4.8c3.7,0,6.3,2.4,6.3,5.9s-2.6,6-6.3,6Zm8.5-6a3.5,3.5,0,0,0-3.7-3.7h-2.2v7.5h2.2A3.6,3.6,0,0,0,192.6,34.4Z"/><path class="cls-1" d="M196.4,36.1a4.4,4.4,0,0,1,4.5-4.5c2.6,0,4.3,1.9,4.3,4.7v.5h-6.4a2.3,2.3,0,0,0,2.5,2,3.5,3.5,0,0,0,2.3-.9l1,1.5a5.5,5.5,0,0,1-3.6,1.3A4.4,4.4,0,0,1,196.4,36.1Zm4.5-2.7a2,2,0,0,0-2.1,1.9H203A1.9,1.9,0,0,0,200.9,33.4Z"/><path class="cls-1" d="M217.6,40.4V35c0-.8-.3-1.4-1.3-1.4a2.4,2.4,0,0,0-1.8,1v5.8h-2.3V35c0-.8-.3-1.4-1.2-1.4a2.2,2.2,0,0,0-1.8,1v5.8h-2.3V31.8h2.3v1.1a3.7,3.7,0,0,1,2.8-1.3,2.2,2.2,0,0,1,2.4,1.5,3.7,3.7,0,0,1,3-1.5c1.6,0,2.5.8,2.5,2.6v6.2Z"/><path class="cls-1" d="M221.6,36.1a4.4,4.4,0,0,1,4.6-4.5,4.3,4.3,0,0,1,4.6,4.5,4.4,4.4,0,0,1-4.6,4.6A4.5,4.5,0,0,1,221.6,36.1Zm6.8,0a2.2,2.2,0,1,0-4.4,0,2.2,2.2,0,1,0,4.4,0Z"/><line class="cls-2" x1="96.6" y1="5.3" x2="96.6" y2="40.6"/><path class="cls-1" d="M0,39.1l1.4-2a5,5,0,0,0,3.8,1.6c1.4,0,2.1-.6,2.1-1.3S.4,36.8.4,32.3c0-2,1.7-3.6,4.5-3.6a6.7,6.7,0,0,1,4.7,1.6L8.1,32.2a4.8,4.8,0,0,0-3.4-1.3c-1.1,0-1.7.5-1.7,1.2s6.8.6,6.8,5.1c0,2.1-1.5,3.8-4.7,3.8A7,7,0,0,1,0,39.1Z"/><path class="cls-1" d="M13.3,40.8v-12h8.5v2.3H15.9v2.5h5.7v2.2H15.9v2.7h5.9v2.3Z"/><path class="cls-1" d="M32.6,40.8,29,36l-.9,1.1v3.7H25.5v-12h2.6v5.4l4.2-5.4h3.1l-4.7,5.6,5,6.4Z"/><path class="cls-1" d="M38.7,36V28.8h2.6v7.1a2.5,2.5,0,0,0,2.8,2.8,2.6,2.6,0,0,0,2.8-2.8V28.8h2.5V36c0,2.9-1.7,5-5.3,5S38.7,38.9,38.7,36Z"/><path class="cls-1" d="M60.3,40.8,58,36.5H56.1v4.3H53.6v-12h5.6a3.8,3.8,0,0,1,4,3.9,3.5,3.5,0,0,1-2.6,3.5l2.7,4.6Zm.3-8.1a1.6,1.6,0,0,0-1.8-1.6H56.1v3.2h2.7A1.6,1.6,0,0,0,60.6,32.7Z"/><path class="cls-1" d="M75.1,40.8l-.7-2.1H69.2l-.7,2.1H65.6l4.6-12h3.2l4.6,12Zm-3.3-9.4-1.9,5.1h3.8Z"/><path class="cls-1" d="M14.5,49.9V48.3c0-.3-.1-.5-.4-.5a.9.9,0,0,0-.7.3v1.8h-.3V48.3a.5.5,0,0,0-.5-.5.7.7,0,0,0-.6.3v1.8h-.4V47.5H12v.3a1.2,1.2,0,0,1,.8-.4.6.6,0,0,1,.6.5,1.1,1.1,0,0,1,.8-.5c.5,0,.7.3.7.8v1.7Z"/><path class="cls-1" d="M16.3,48.7a1.2,1.2,0,0,1,1.2-1.3,1.3,1.3,0,0,1,0,2.6A1.2,1.2,0,0,1,16.3,48.7Zm2,0a.8.8,0,1,0-.8.9A.8.8,0,0,0,18.3,48.7Z"/><path class="cls-1" d="M20.1,49.9V46.6h.3v1.3a1.1,1.1,0,0,1,.9-.5,1.3,1.3,0,0,1,0,2.6,1.3,1.3,0,0,1-.9-.4v.3Zm1.1-.3a.9.9,0,0,0,0-1.8.9.9,0,0,0-.8.4v1.1A1.1,1.1,0,0,0,21.2,49.6Z"/><path class="cls-1" d="M23.7,46.9c0-.2.1-.3.2-.3a.3.3,0,0,1,.3.3c0,.1-.1.2-.3.2A.2.2,0,0,1,23.7,46.9Zm0,3V47.5h.4v2.4Z"/><path class="cls-1" d="M25.6,49.9V46.6H26v3.3Z"/><path class="cls-1" d="M27.4,48.7a1.2,1.2,0,0,1,1.2-1.3,1.2,1.2,0,0,1,1.1,1.3H27.8a.8.8,0,0,0,.8.9,1.1,1.1,0,0,0,.8-.3l.2.2a1.8,1.8,0,0,1-1,.4A1.2,1.2,0,0,1,27.4,48.7Zm1.2-1a.8.8,0,0,0-.8.8h1.6A.9.9,0,0,0,28.6,47.7Z"/><path class="cls-1" d="M33.1,46.9a.3.3,0,0,1,.3-.3c.1,0,.2.1.2.3a.2.2,0,0,1-.2.2C33.2,47.1,33.1,47,33.1,46.9Zm.1,3V47.5h.3v2.4Z"/><path class="cls-1" d="M36.7,49.9V48.3c0-.4-.2-.5-.5-.5a1.1,1.1,0,0,0-.8.3v1.8h-.3V47.5h.3v.3a1.3,1.3,0,0,1,.9-.4.7.7,0,0,1,.8.8v1.7Z"/><path class="cls-1" d="M38.7,49.4V47.8h-.4v-.3h.4v-.7h.4v.7h.4v.3h-.4v1.5c0,.2,0,.3.2.3h.3v.3l-.5.2C38.9,50,38.7,49.8,38.7,49.4Z"/><path class="cls-1" d="M40.7,48.7a1.2,1.2,0,1,1,2.4,0h-2a.8.8,0,0,0,.9.9.9.9,0,0,0,.7-.3l.2.2a1.5,1.5,0,0,1-1,.4A1.2,1.2,0,0,1,40.7,48.7Zm1.2-1a.9.9,0,0,0-.8.8h1.6A.9.9,0,0,0,41.9,47.7Z"/><path class="cls-1" d="M44.4,49.9V46.6h.4v3.3Z"/><path class="cls-1" d="M46.3,49.9V46.6h.4v3.3Z"/><path class="cls-1" d="M48.1,46.9a.3.3,0,1,1,.6,0c0,.1-.2.2-.3.2S48.1,47,48.1,46.9Zm.1,3V47.5h.4v2.4Z"/><path class="cls-1" d="M50.1,50.5l.2-.2a1,1,0,0,0,.8.3.7.7,0,0,0,.8-.7v-.4a1,1,0,0,1-.9.4c-.6,0-1-.4-1-1.2s.4-1.3,1-1.3a1.1,1.1,0,0,1,.9.5v-.4h.3v2.4c0,.8-.5,1-1.1,1A1.3,1.3,0,0,1,50.1,50.5Zm1.8-1.3V48.1a1.1,1.1,0,0,0-.8-.3c-.4,0-.7.3-.7.9a.8.8,0,0,0,.7.9A1.2,1.2,0,0,0,51.9,49.2Z"/><path class="cls-1" d="M53.6,48.7a1.2,1.2,0,0,1,1.2-1.3A1.2,1.2,0,0,1,56,48.7H54c.1.5.4.9.9.9a1.1,1.1,0,0,0,.8-.3v.2a1.3,1.3,0,0,1-.9.4A1.2,1.2,0,0,1,53.6,48.7Zm1.2-1a.9.9,0,0,0-.8.8h1.6A.8.8,0,0,0,54.8,47.7Z"/><path class="cls-1" d="M59,49.9V48.3c0-.4-.2-.5-.5-.5a1.1,1.1,0,0,0-.8.3v1.8h-.3V47.5h.3v.3a1.3,1.3,0,0,1,.9-.4.7.7,0,0,1,.8.8v1.7Z"/><path class="cls-1" d="M60.8,48.7A1.2,1.2,0,0,1,62,47.4a1.3,1.3,0,0,1,.9.4l-.3.3a.7.7,0,0,0-.6-.3.9.9,0,0,0,0,1.8.7.7,0,0,0,.6-.3l.3.3a1.3,1.3,0,0,1-.9.4A1.2,1.2,0,0,1,60.8,48.7Z"/><path class="cls-1" d="M64,48.7a1.2,1.2,0,0,1,1.2-1.3,1.2,1.2,0,0,1,1.2,1.3h-2a.9.9,0,0,0,.9.9.8.8,0,0,0,.7-.3l.2.2a1.3,1.3,0,0,1-.9.4A1.2,1.2,0,0,1,64,48.7Zm1.2-1a.9.9,0,0,0-.8.8H66A.8.8,0,0,0,65.2,47.7Z"/><path class="cls-1" d="M42.5,12h0L39.4,8.9,39,8.7a.5.5,0,0,0-.4.2l-1.4,1.4L35.6,8.7,37,7.4a2.8,2.8,0,0,1,4,0l3,3h0L45.6,12h0l-1.5,1.6H44Z"/><path class="cls-1" d="M45.8,15.3l1.5,1.5a3.1,3.1,0,0,0,0-3.1Z"/><path class="cls-1" d="M39.4,21.6a.6.6,0,0,1-.8,0l-7.9-7.9a2.7,2.7,0,0,0,.4,3.5L37,23.1a2.7,2.7,0,0,0,2,.9,2.8,2.8,0,0,0,2-.9l4.7-4.7-1.6-1.6Z"/><path class="cls-1" d="M46.9,6.7,41,.8a2.8,2.8,0,0,0-4,0L31.1,6.7a2.8,2.8,0,0,0,0,4L32.4,12h0l1.5,1.6h0l3.1,3a2.6,2.6,0,0,0,2,.8,2.7,2.7,0,0,0,2-.8l1.4-1.4-1.6-1.6L39.4,15a.5.5,0,0,1-.8,0l-3.1-3h0l-1.6-1.6h0L32.7,9.1a.5.5,0,0,1,0-.8l5.9-5.9a.5.5,0,0,1,.4-.2l.4.2,5.9,5.9h0l2,1.9A2.9,2.9,0,0,0,46.9,6.7Z"/></g></g></svg>