<svg xmlns="http://www.w3.org/2000/svg" viewBox="0 0 201.75 176.69"><defs><style>.cls-1{fill:#006170;}.cls-2{fill:#f4d959;}.cls-3{fill:#fff;}.cls-4{fill:#00c3db;}</style></defs><g id="Layer_2" data-name="Layer 2"><g id="Layer_1-2" data-name="Layer 1"><path class="cls-1" d="M147.64,0H54.11a7.35,7.35,0,0,0-6.36,3.67L1,84.67A7.36,7.36,0,0,0,1,92l46.77,81a7.35,7.35,0,0,0,6.36,3.67h93.53A7.34,7.34,0,0,0,154,173l46.77-81a7.36,7.36,0,0,0,0-7.35L154,3.67A7.34,7.34,0,0,0,147.64,0Z"/><path class="cls-2" d="M68.6,119.82l11.47-.22a3.16,3.16,0,0,0,2.13-5.44l-5.84-5.63a3.16,3.16,0,0,0-4.47.09l-5.63,5.84A3.17,3.17,0,0,0,68.6,119.82Z"/><path class="cls-2" d="M98.48,162.23l1.22-2-1.26,2-.29-.17a2.36,2.36,0,0,1,2.47-4l.26.15Z"/><path class="cls-2" d="M92.18,157.08a2.35,2.35,0,0,1-1.55-.58l-.57-.51a2.36,2.36,0,1,1,3.16-3.5l.51.45a2.36,2.36,0,0,1-1.55,4.14Zm-6.66-7a2.37,2.37,0,0,1-1.86-.9l-.45-.59a2.35,2.35,0,1,1,3.73-2.87l.43.54a2.37,2.37,0,0,1-1.85,3.82ZM80.23,142a2.34,2.34,0,0,1-2.08-1.25l-.35-.65A2.36,2.36,0,0,1,82,137.91l.32.61a2.37,2.37,0,0,1-1,3.2A2.42,2.42,0,0,1,80.23,142Zm-3.76-8.9a2.37,2.37,0,0,1-2.25-1.64l-.22-.72a2.36,2.36,0,0,1,4.51-1.37l.2.65a2.35,2.35,0,0,1-1.52,3A2.27,2.27,0,0,1,76.47,133.09Zm-2.09-9.44A2.37,2.37,0,0,1,72,121.59l-.09-.73a2.36,2.36,0,0,1,4.69-.56l.08.69a2.35,2.35,0,0,1-2,2.64Z"/><path class="cls-2" d="M74.05,113.94h-.13a2.36,2.36,0,0,1-2.23-2.48v-.2a2.42,2.42,0,0,1,2.5-2.3,2.28,2.28,0,0,1,2.22,2.38l0,.37A2.34,2.34,0,0,1,74.05,113.94Z"/><path class="cls-2" d="M133.37,57.29l-11.47.22A3.16,3.16,0,0,0,119.77,63l5.84,5.62a3.15,3.15,0,0,0,4.47-.08l5.62-5.85A3.16,3.16,0,0,0,133.37,57.29Z"/><path class="cls-2" d="M102.54,19.44a2.28,2.28,0,0,1-1.17-.33,2.5,2.5,0,0,1-1-3.32,2.21,2.21,0,0,1,3.08-.92l.22.13a2.42,2.42,0,0,1,.85,3.28A2.34,2.34,0,0,1,102.54,19.44Z"/><path class="cls-2" d="M127.67,58.89a2.36,2.36,0,0,1-2.34-2.08l-.08-.69a2.36,2.36,0,0,1,4.68-.6l.09.73A2.36,2.36,0,0,1,128,58.87Zm-2-9.46a2.36,2.36,0,0,1-2.26-1.68l-.2-.64a2.36,2.36,0,0,1,4.49-1.45l.22.72a2.38,2.38,0,0,1-2.25,3Zm-3.64-9A2.36,2.36,0,0,1,120,39.2l-.32-.61a2.36,2.36,0,1,1,4.16-2.22l.35.65a2.37,2.37,0,0,1-2.09,3.45Zm-5.19-8.16a2.35,2.35,0,0,1-1.87-.92l-.42-.54a2.36,2.36,0,0,1,3.71-2.92l.45.58a2.36,2.36,0,0,1-1.87,3.8Zm-6.56-7.09a2.35,2.35,0,0,1-1.57-.59l-.52-.46a2.36,2.36,0,1,1,3.1-3.56l.56.5a2.35,2.35,0,0,1-1.57,4.11Z"/><path class="cls-2" d="M127.9,65.89l-2.35-.17,0-.36a2.33,2.33,0,0,1,2.52-2.19,2.36,2.36,0,0,1,2.19,2.52l-2.36-.17,2.35.33Z"/><path class="cls-1" d="M129.33,81.65H115.2a9.83,9.83,0,0,0-9.84,9.84v38.8a9.84,9.84,0,0,0,9.84,9.85h23.07a9.85,9.85,0,0,0,9.85-9.85V100.44a9.86,9.86,0,0,0-2.89-7l-8.94-8.94A9.83,9.83,0,0,0,129.33,81.65Z"/><path class="cls-3" d="M138.27,142.49H115.2a12.21,12.21,0,0,1-12.2-12.2V91.49a12.21,12.21,0,0,1,12.2-12.2h14.13A12.15,12.15,0,0,1,138,82.86l8.94,9a12.1,12.1,0,0,1,3.58,8.63v29.85A12.22,12.22,0,0,1,138.27,142.49ZM115.2,84a7.49,7.49,0,0,0-7.48,7.49v38.8a7.49,7.49,0,0,0,7.48,7.49h23.07a7.5,7.5,0,0,0,7.49-7.49V100.44a7.58,7.58,0,0,0-2.19-5.3l-8.95-8.94a7.4,7.4,0,0,0-5.29-2.2Z"/><rect class="cls-4" x="113.22" y="107.57" width="20.64" height="25.07" rx="0.4"/><path class="cls-1" d="M76.06,37.35H61.93a9.85,9.85,0,0,0-9.84,9.84V86a9.85,9.85,0,0,0,9.84,9.85H85A9.85,9.85,0,0,0,94.85,86V56.14a9.87,9.87,0,0,0-2.88-7l-9-9A9.87,9.87,0,0,0,76.06,37.35Z"/><path class="cls-3" d="M85,98.2H61.93A12.22,12.22,0,0,1,49.73,86V47.2A12.23,12.23,0,0,1,61.93,35H76.06a12.12,12.12,0,0,1,8.63,3.58l8.94,8.94a12.12,12.12,0,0,1,3.58,8.63V86A12.22,12.22,0,0,1,85,98.2ZM61.93,39.71a7.5,7.5,0,0,0-7.48,7.49V86a7.49,7.49,0,0,0,7.48,7.48H85A7.49,7.49,0,0,0,92.49,86V56.14a7.54,7.54,0,0,0-2.19-5.29l-9-9a7.44,7.44,0,0,0-5.29-2.19Z"/><rect class="cls-4" x="59.95" y="63.28" width="20.64" height="25.07" rx="0.4"/></g></g></svg>